<svg width="64" height="64" viewBox="0 0 24 24" fill="none" xmlns="http://www.w3.org/2000/svg">
  <path d="M12 0C5.372 0 0 5.372 0 12c0 5.303 3.438 9.797 8.205 11.385.6.11.823-.259.823-.577v-2.24c-3.338.724-4.042-1.61-4.042-1.61-.545-1.38-1.333-1.747-1.333-1.747-1.089-.745.083-.73.083-.73 1.205.085 1.838 1.24 1.838 1.24 1.072 1.835 2.812 1.306 3.493.999.107-.776.418-1.306.763-1.607-2.665-.306-5.467-1.332-5.467-5.934 0-1.31.469-2.378 1.24-3.22-.124-.306-.54-1.54.118-3.208 0 0 1.007-.322 3.299 1.23a11.474 11.474 0 0 1 3.003-.406c1.019.004 2.057.139 3.003.406 2.293-1.553 3.297-1.23 3.297-1.23.659 1.668.244 2.902.12 3.208.773.842 1.24 1.91 1.24 3.22 0 4.612-2.805 5.627-5.474 5.922.429.37.812 1.097.812 2.214v3.272c0 .323.222.692.832.574C20.562 21.798 24 17.303 24 12 24 5.372 18.628 0 12 0z" fill="#ffffff"/>
</svg>
